HIERARCHY
ROOT Hips
{
	OFFSET 0.000000 0.000000 0.000000 
	CHANNELS 6 Xposition Yposition Zposition Zrotation Yrotation Xrotation
	JOINT LeftUpLeg
	{
		OFFSET 1.363060 -1.794630 0.839290 
		CHANNELS 3 Zrotation Yrotation Xrotation
		JOINT LeftLeg
		{
			OFFSET 2.448110 -6.726130 0.000000 
			CHANNELS 3 Zrotation Yrotation Xrotation
			JOINT LeftFoot
			{
				OFFSET 2.562200 -7.039590 0.000000 
				CHANNELS 3 Zrotation Yrotation Xrotation
				JOINT LeftToeBase
				{
					OFFSET 0.157640 -0.433110 2.322550 
					CHANNELS 3 Zrotation Yrotation Xrotation
					End Site
					{
						OFFSET 0.000000 0.000000 0.000000 
					}
				}
			}
		}
	}
	JOINT RightUpLeg
	{
		OFFSET -1.305520 -1.794630 0.839290 
		CHANNELS 3 Zrotation Yrotation Xrotation
		JOINT RightLeg
		{
			OFFSET -2.542530 -6.985550 0.000000 
			CHANNELS 3 Zrotation Yrotation Xrotation
			JOINT RightFoot
			{
				OFFSET -2.568260 -7.056230 0.000000 
				CHANNELS 3 Zrotation Yrotation Xrotation
				JOINT RightToeBase
				{
					OFFSET -0.164730 -0.452590 2.363150 
					CHANNELS 3 Zrotation Yrotation Xrotation
					End Site
					{
						OFFSET 0.000000 0.000000 0.000000 
					}
				}
			}
		}
	}
	JOINT Spine
	{
		OFFSET 0.028270 2.035590 -0.193380 
		CHANNELS 3 Zrotation Yrotation Xrotation
		JOINT Spine1
		{
			OFFSET 0.056720 2.048850 -0.042750 
			CHANNELS 3 Zrotation Yrotation Xrotation
			JOINT Neck1
			{
				OFFSET -0.054170 1.746240 0.172020 
				CHANNELS 3 Zrotation Yrotation Xrotation
				JOINT Head
				{
					OFFSET 0.104070 1.761360 -0.123970 
					CHANNELS 3 Zrotation Yrotation Xrotation
					End Site
					{
						OFFSET 0.000000 0.000000 0.000000 
					}
				}
			}
			JOINT LeftArm
			{
				OFFSET 3.362410 1.200890 -0.311210 
				CHANNELS 3 Zrotation Yrotation Xrotation
				JOINT LeftForeArm
				{
					OFFSET 4.983000 -0.000000 -0.000000 
					CHANNELS 3 Zrotation Yrotation Xrotation
					JOINT LeftHand
					{
						OFFSET 3.483560 -0.000000 -0.000000 
						CHANNELS 3 Zrotation Yrotation Xrotation
						JOINT LeftHandIndex1
						{
							OFFSET 0.715260 -0.000000 -0.000000 
							CHANNELS 3 Zrotation Yrotation Xrotation
							End Site
							{
								OFFSET 0.000000 0.000000 0.000000 
							}
						}
					}
				}
			}
			JOINT RightArm
			{
				OFFSET -3.136600 1.374050 -0.404650 
				CHANNELS 3 Zrotation Yrotation Xrotation
				JOINT RightForeArm
				{
					OFFSET -5.241900 -0.000000 -0.000000 
					CHANNELS 3 Zrotation Yrotation Xrotation
					JOINT RightHand
					{
						OFFSET -3.444170 -0.000000 -0.000000 
						CHANNELS 3 Zrotation Yrotation Xrotation
						JOINT RightHandIndex1
						{
							OFFSET -0.622530 -0.000000 -0.000000 
							CHANNELS 3 Zrotation Yrotation Xrotation
							End Site
							{
								OFFSET 0.000000 0.000000 0.000000 
							}
						}
					}
				}
			}
		}
	}
}
MOTION
Frames: 15
Frame Time: 0.041667
-14.585190 17.979338 10.069621 3.254959 -14.425447 3.788114 -15.179651 -21.096166 -8.716697 4.355809 12.440792 40.259724 -0.230708 -19.445188 3.982365 1.654800 -8.106700 -23.038700 23.112267 -0.412908 -22.774161 -1.823241 -8.227995 24.557150 1.899831 -12.989726 -3.541672 -0.313400 -3.598800 9.950700 -1.096777 7.534206 4.999147 -6.996764 4.151680 -1.560023 2.323280 20.481970 40.193302 6.006700 6.247900 19.517800 -81.740300 9.025206 15.154627 19.311858 -27.204201 -5.263364 -0.740380 -2.116356 2.462152 -7.125000 0.000000 0.000000 81.762280 -0.958267 25.998661 -18.110458 26.264358 -4.296547 0.256808 -0.077688 2.188046 7.125000 0.000000 0.000000 
-14.560150 17.975281 10.021819 3.166419 -14.267600 3.771057 -15.093062 -20.942404 -8.189093 4.395345 12.459995 40.401554 -0.353846 -20.277900 5.103624 1.768100 -8.365400 -23.829700 23.175513 -0.469575 -22.931252 -1.822226 -8.232903 24.553451 1.905163 -13.030773 -3.439450 -0.329500 -3.689300 10.204200 -1.172360 7.669458 4.885077 -7.167193 4.215175 -1.663312 2.441763 20.413964 40.266854 5.986600 6.297400 19.531400 -81.620627 9.374689 14.765765 19.022184 -26.847702 -5.100593 -0.739389 -2.119773 2.920463 -7.125000 0.000000 0.000000 82.123144 -1.384360 25.030413 -18.601354 26.911076 -4.529785 0.251773 -0.071529 2.389004 7.125000 0.000000 0.000000 
-14.533825 17.963602 9.971839 3.122164 -14.131476 3.697251 -15.119910 -20.607984 -7.556288 4.399351 12.438536 40.376397 -0.463928 -21.327926 5.470148 2.227400 -9.324500 -26.815900 23.151478 -0.415736 -23.126421 -1.852925 -8.311792 24.771604 1.909460 -13.064995 -3.510187 -0.348900 -3.795300 10.501600 -1.192499 7.705286 4.880510 -7.171755 4.233453 -1.650463 2.436023 20.540840 40.315448 5.986700 6.362600 19.592200 -81.727925 9.609146 14.230703 18.861289 -26.649086 -5.002612 -0.743674 -2.168597 3.290317 -7.125000 0.000000 0.000000 82.144480 -1.467949 24.909425 -18.906852 27.304896 -4.674480 0.264079 -0.072965 1.905009 7.125000 0.000000 0.000000 
-14.504134 17.947371 9.919980 3.175833 -13.983754 3.614952 -15.266096 -20.207144 -6.939901 4.399601 12.411923 40.334649 -0.592055 -22.388973 5.882823 2.452100 -9.750400 -28.172100 22.999298 -0.314586 -23.304794 -1.868181 -8.359174 24.885584 1.930712 -13.197695 -3.486365 -0.381200 -3.965200 10.978700 -1.178356 7.676626 4.942838 -7.060379 4.221748 -1.561382 2.295255 20.756589 40.125758 5.966300 6.423100 19.492200 -82.013463 9.650295 13.493022 18.631005 -26.347412 -4.868901 -0.763355 -2.164329 3.665207 -7.125000 0.000000 0.000000 81.922496 -1.433052 25.154250 -19.290608 27.798909 -4.859703 0.281837 -0.080986 1.339088 7.125000 0.000000 0.000000 
-14.475532 17.942324 9.868219 3.136110 -13.769321 3.571063 -15.268336 -20.018302 -6.325389 4.375118 12.364133 40.229562 -0.751632 -23.139872 7.472115 2.163900 -9.199500 -26.421500 22.972672 -0.281024 -23.463678 -1.879083 -8.396190 24.974257 1.959591 -13.366078 -3.518903 -0.428800 -4.202500 11.647100 -1.165430 7.655963 4.950846 -7.033754 4.209898 -1.544756 2.218234 20.835954 39.871709 5.941100 6.453300 19.315300 -82.301040 9.708663 12.502502 18.334898 -25.955621 -4.702141 -0.776797 -2.128156 4.337188 -7.125000 0.000000 0.000000 81.841419 -1.462215 25.076633 -19.621681 28.223532 -5.026515 0.279393 -0.075142 1.174673 7.125000 0.000000 0.000000 
-14.445841 17.941532 9.815963 3.134375 -13.583537 3.515425 -15.305464 -19.920090 -5.716686 4.336072 12.305332 40.085007 -0.888843 -23.615400 9.439222 1.881400 -8.614500 -24.596700 22.930118 -0.407905 -23.650322 -1.882441 -8.413487 25.005340 1.957003 -13.362924 -3.482595 -0.457200 -4.337400 12.028000 -1.214424 7.691119 4.948019 -7.088037 4.227692 -1.490998 2.492705 20.777677 39.947748 6.068000 6.459700 19.338500 -82.388634 9.809803 11.840332 18.073251 -25.613686 -4.557239 -0.788895 -2.115132 4.918669 -7.125000 0.000000 0.000000 81.967607 -1.418534 24.588844 -19.801445 28.457483 -5.118930 0.270922 -0.070667 1.153355 7.125000 0.000000 0.000000 
-14.414171 17.937177 9.759353 3.065962 -13.516808 3.477666 -15.241768 -19.632505 -5.192370 4.283453 12.237781 39.895808 -0.991877 -23.951375 11.569771 1.533800 -7.818800 -22.165200 22.963778 -0.420548 -23.784466 -1.872856 -8.398257 24.938587 1.962777 -13.412280 -3.283328 -0.457700 -4.340100 12.035400 -1.249814 7.774664 4.941693 -7.168099 4.270897 -1.423984 2.833387 20.801860 40.186757 6.246700 6.492800 19.465800 -82.453282 9.960617 11.428534 17.852688 -25.323725 -4.439488 -0.807218 -2.085179 5.231647 -7.125000 0.000000 0.000000 82.061342 -1.328009 24.164816 -19.954830 28.655593 -5.193836 0.276263 -0.079323 0.840249 7.125000 0.000000 0.000000 
-14.380917 17.933812 9.703930 3.022010 -13.453812 3.399921 -15.225760 -19.354051 -4.598648 4.214015 12.153732 39.637059 -1.032224 -24.025705 13.483771 1.118400 -6.718200 -18.883200 22.952476 -0.400585 -23.849718 -1.862164 -8.381163 24.865172 1.971338 -13.478619 -3.087552 -0.467500 -4.385400 12.163600 -1.241918 7.815153 4.933732 -7.156869 4.289812 -1.408787 2.896399 20.925040 40.188237 6.288200 6.551900 19.441200 -82.654093 10.203724 11.066935 17.709168 -25.133202 -4.362035 -0.817976 -2.077538 5.353599 -7.125000 0.000000 0.000000 81.991434 -1.235631 24.094095 -20.094911 28.831363 -5.263229 0.281773 -0.080675 0.425456 7.125000 0.000000 0.000000 
-14.344793 17.933812 9.653159 3.078516 -13.368102 3.315281 -15.372964 -19.179865 -3.919759 4.121216 12.041735 39.274190 -1.029820 -23.942365 15.327731 0.703800 -5.362300 -14.945000 22.831507 -0.556288 -24.000429 -1.854758 -8.369248 24.803164 1.949592 -13.389963 -2.784691 -0.469500 -4.394900 12.190300 -1.264399 7.803915 4.927067 -7.126039 4.282889 -1.354634 3.074447 21.043077 40.311741 6.408300 6.596000 19.497100 -82.816868 10.321528 10.691367 17.480587 -24.825039 -4.237636 -0.832519 -2.093138 5.463134 -7.125000 0.000000 0.000000 81.878204 -1.275983 24.330638 -20.340974 29.136520 -5.391449 0.284128 -0.070567 0.074833 7.125000 0.000000 0.000000 
-14.306987 17.932724 9.603377 3.244074 -13.202815 3.207111 -15.654938 -19.030510 -3.209715 4.009424 11.905539 38.824117 -0.983448 -23.708965 17.237240 0.390100 -4.010500 -11.106100 22.553837 -0.672509 -24.140855 -1.843742 -8.358001 24.734093 1.953137 -13.436655 -2.606936 -0.529500 -4.662900 12.949500 -1.347828 7.778605 4.881002 -7.148532 4.267972 -1.369023 3.256655 21.166962 40.600590 6.513500 6.656700 19.687000 -82.925236 10.478065 10.140115 17.295750 -24.576220 -4.138641 -0.818798 -2.096146 5.763072 -7.125000 0.000000 0.000000 81.932318 -1.464149 24.339748 -20.660985 29.527523 -5.557202 0.289694 -0.064572 -0.176721 7.125000 0.000000 0.000000 
-14.268983 17.930349 9.547163 3.308697 -13.064138 3.057209 -15.819016 -18.829683 -2.487512 3.877327 11.752663 38.294610 -0.813939 -22.906726 19.437152 0.118100 -2.215800 -6.102400 22.358533 -0.535238 -24.142697 -1.835851 -8.356075 24.696724 2.002767 -13.727832 -2.549165 -0.572400 -4.845000 13.467000 -1.401286 7.815177 4.826425 -7.192713 4.281289 -1.478833 3.332497 21.234951 40.755004 6.530400 6.715700 19.787000 -82.997727 10.768687 9.869282 17.203211 -24.455591 -4.090738 -0.814458 -2.093381 5.984362 -7.125000 0.000000 0.000000 82.097743 -1.612389 23.773381 -20.938844 29.870187 -5.703022 0.283499 -0.065122 -0.137644 7.125000 0.000000 0.000000 
-14.229593 17.925796 9.486495 3.219063 -12.964821 2.964909 -15.782048 -18.610961 -1.840377 3.733006 11.581043 37.684254 -0.693344 -22.552476 21.128810 0.041500 -1.315300 -3.616700 22.329691 -0.327358 -24.188539 -1.838127 -8.371338 24.718549 2.045328 -13.981634 -2.457872 -0.578400 -4.869900 13.537900 -1.389225 7.889536 4.855672 -7.202293 4.318437 -1.432039 3.441069 21.206611 40.815322 6.594500 6.709600 19.854900 -83.100582 10.820030 9.786857 17.040661 -24.228678 -4.008342 -0.829647 -2.069537 6.131185 -7.125000 0.000000 0.000000 82.151284 -1.552759 23.226339 -21.182070 30.173364 -5.834077 0.273644 -0.059249 0.008996 7.125000 0.000000 0.000000 
-14.187630 17.917878 9.427509 3.194633 -12.899461 2.980215 -15.812694 -18.414910 -1.263665 3.578881 11.386983 37.001064 -0.672582 -22.759954 22.141336 0.045900 -1.382000 -3.800500 22.233128 -0.183042 -24.426918 -1.843944 -8.393719 24.755594 2.056288 -14.076782 -2.254119 -0.582100 -4.885400 13.582000 -1.388165 7.954570 4.928945 -7.167391 4.355207 -1.226330 3.648920 21.158567 40.825317 6.755500 6.663900 19.893300 -83.260957 10.671377 9.629299 16.885284 -24.003227 -3.929360 -0.824047 -2.050933 6.223872 -7.125000 0.000000 0.000000 82.003531 -1.348685 23.290771 -21.432992 30.482724 -5.971414 0.273215 -0.049151 -0.364745 7.125000 0.000000 0.000000 
-14.143490 17.907388 9.369315 3.324256 -12.803432 2.896351 -16.063258 -18.237567 -0.556971 3.409876 11.170999 36.241929 -0.540862 -22.349303 23.406181 0.013300 -0.745000 -2.047400 21.961160 -0.128837 -24.649166 -1.854440 -8.428045 24.823313 2.061452 -14.145850 -2.046405 -0.584300 -4.894600 13.608100 -1.448233 7.970688 4.974043 -7.157752 4.365174 -1.105849 3.864661 21.155703 40.821759 6.898100 6.659000 19.887200 -83.377450 10.635750 9.502909 16.792135 -23.869289 -3.880161 -0.817123 -2.063288 6.258828 -7.125000 0.000000 0.000000 81.948277 -1.278646 23.496213 -21.762406 30.877458 -6.150843 0.279485 -0.041896 -1.119776 7.125000 0.000000 0.000000 
-14.096480 17.899173 9.307954 3.339301 -12.692085 2.783171 -16.200478 -18.053552 0.174968 3.227332 10.936702 35.409840 -0.328453 -21.597176 24.898681 0.000800 0.186800 0.513100 21.813975 -0.138737 -24.851295 -1.870755 -8.472583 24.928687 2.066000 -14.207665 -1.872661 -0.592700 -4.928900 13.706000 -1.483282 7.950685 4.893651 -7.215309 4.345220 -1.236148 4.262920 21.180688 40.963407 7.097400 6.703400 19.889500 -83.546475 10.896633 9.242539 16.743271 -23.802820 -3.853462 -0.820761 -2.065763 6.466617 -7.125000 0.000000 0.000000 82.075133 -1.510669 23.227488 -22.131482 31.311049 -6.352674 0.278974 -0.037278 -1.174509 7.125000 0.000000 0.000000 
